<svg xmlns="http://www.w3.org/2000/svg" xmlns:xlink="http://www.w3.org/1999/xlink" viewBox="0 0 240.07 130.91"><defs><style>.cls-1{fill:none;}.cls-2{clip-path:url(#clip-path);}.cls-3{fill:#161a31;}.cls-4{fill:#1e499a;}.cls-5{fill:#52afdf;}.cls-6{fill:#243882;}.cls-7{fill:#4ebbb6;}.cls-8{fill:#4c89a3;}.cls-9{fill:#243162;}</style><clipPath id="clip-path" transform="translate(0)"><rect class="cls-1" width="240" height="130.91"/></clipPath></defs><g id="Layer_2" data-name="Layer 2"><g id="Layer_1-2" data-name="Layer 1"><g class="cls-2"><path class="cls-3" d="M6.24,68.49l1.85,1.84,2.1-2.08-2.1-2L6.24,68,4.38,66.22l-2,2,2,2.08Z" transform="translate(0)"/><path class="cls-3" d="M20.38,93.78l1.8,1.78,2.1-2-2.1-2-1.8,1.78-1.85-1.78-2,2,2,2Z" transform="translate(0)"/><path class="cls-3" d="M32.61,81.26V66.59l-3,.06C29,68.49,31,85.06,28.17,85.25c-6.18,1.1-6.68-1-6.37-6.63H19.09c-.07,1.29.18,4.42-.38,5.4-1.05,1.9-6,2.15-6.85-.12-.56-1.48-.19-10-.31-11.73H8.64v2c-15.75,3-6.42,18.29.19,9.88.06,5.65,9.64,7.12,11.55,2.27.74,2.4,2.84,2.82,5.44,2.82C30.88,89.48,32.8,86.11,32.61,81.26Zm-24,.61c-7.16,2.95-9-2.88,0-4.48Z" transform="translate(0)"/><path class="cls-3" d="M94.39,81.26V66.59l-3,.06c-.55,1.84,1.42,18.41-1.42,18.6-5.68,1.9-5.5-4.24-8.4-7-4.2-3.62-10.44,1.29-9.39,6.45-1.67,1.53-9.45.42-11.61.79H52.13c-16.8.43-11.24.43-12.17-18.84h-3c.8,4.79-2.23,19,2.78,21.85,2.1,1.35,9.82.61,12.41.8h8.41c2.71-.49,11.36,1.53,12.29-2.15,1.54,3.31,9,2.88,9.88-.67,1.3,3.31,6.3,3.31,8.9,2C94.08,87,94.33,84.45,94.39,81.26ZM77.71,85.62c-8.34-.31,1.36-10.19,4.08-1.11Q80.86,85.62,77.71,85.62Z" transform="translate(0)"/><path class="cls-3" d="M101.62,66.59h-3V89.24h3Z" transform="translate(0)"/><path class="cls-3" d="M116.75,71l1.85,1.84,2.11-2.09-2.11-2-1.85,1.78-1.85-1.78-2,2,2,2.09Z" transform="translate(0)"/><path class="cls-3" d="M116.75,89.24c8.9,1,7.85-14.18.13-13.81C109.09,75,107.92,90.22,116.75,89.24Zm-2.59-9.09c3-3.37,8.52,1.54,5.44,4.79C115.7,86.6,111,84.7,114.16,80.15Z" transform="translate(0)"/><path class="cls-3" d="M184.4,72.54l1.85,1.84,2.1-2.08-2.1-2.09-1.85,1.84-1.85-1.84-2.1,2.09,2.1,2.08Z" transform="translate(0)"/><path class="cls-3" d="M186.31,81.5a24.17,24.17,0,0,0-.49-4.54H183c.43,2.76,1.05,5.59-.37,7.49-1.49,1.53-5.38,1.35-6.06-1.29-2.41-9-12.78-7.79-12.35,1.47-1.67,1.54-9.45.43-11.62.8h-16.8c-4.08.06-3.27-2.27-3.71-5.21h-3c1.42,5.52.8,14.91-6.92,12.21v3.44c5.19,2.94,10-2.64,10.19-7.8,1.67,2,9.52.86,11.86,1.17h8.41c2.71-.49,11.36,1.53,12.29-2.15,1.54,3.31,9,2.88,9.88-.68C178.16,92.37,187.3,88.32,186.31,81.5Zm-16.49,4.12c-8.34-.31,1.36-10.19,4.07-1.11C173.28,85.25,171.92,85.62,169.82,85.62Z" transform="translate(0)"/><path class="cls-3" d="M7.78,120.84c-1-1.22-.37-8.83-.56-10.43h4.2v-2.82H7.22v-4.91H3.7v4.91H.92v2.82H3.7c.13,6.14-1.85,16.45,8,13.87v-2.94C10.87,121.58,8.4,121.76,7.78,120.84Z" transform="translate(0)"/><path class="cls-3" d="M24.46,107.83c-2.84-1.16-7.66-1-10.13,1v3.25c3-2.76,10.32-3.19,9.51,2.39-4.38-.06-10.62-.49-10.44,5.16-.43,5.4,8,6.32,10.44,2.51V124h3.52C26.75,120.05,29.28,109.92,24.46,107.83Zm-.62,10.31c.5,3.87-6.79,5.28-7,1.54-.18-3.5,4.7-2.21,7-2.46Z" transform="translate(0)"/><path class="cls-3" d="M50.59,107.16A5.92,5.92,0,0,0,45,110.29c-1.36-3.93-8-4.24-10.25-.74v-2H31.25V124.1h3.53c.61-3.38-2.23-13.93,3.76-13.75,5.69-.18,3,10.49,3.52,13.75h3.53c.61-3.44-2.23-13.93,3.76-13.75,5.69-.18,3,10.49,3.53,13.75H56.4C55.9,119,59.12,106.73,50.59,107.16Z" transform="translate(0)"/><path class="cls-3" d="M63.94,110.1v-2.51H60.41V124.1h3.53c.3-4-1.86-14.49,5.12-13.57v-3.37A5.83,5.83,0,0,0,63.94,110.1Z" transform="translate(0)"/><path class="cls-3" d="M81.36,107.83c-2.85-1.16-7.66-1-10.14,1v3.25c3-2.76,10.32-3.19,9.52,2.39-4.39-.06-10.63-.49-10.44,5.16-.43,5.4,8,6.32,10.44,2.51V124h3.52C83.58,120.05,86.17,109.92,81.36,107.83Zm-.68,10.31c.49,3.87-6.8,5.28-7,1.54-.19-3.5,4.69-2.21,7-2.46Z" transform="translate(0)"/><path class="cls-3" d="M95,109.24c-1.86,1.72-2.16,5-2,7.62-.55,6.93,7.72,9.63,12.73,6.32v-3.07c-5.38,3.25-10.13,1.16-9.15-5.4-.37-5.34,5.87-5.59,9.21-3.13v-3.32C102.92,106.61,97.17,106.73,95,109.24Z" transform="translate(0)"/><path class="cls-3" d="M119,107.83c-2.85-1.16-7.66-1-10.13,1v3.25c3-2.76,10.31-3.19,9.51,2.39-4.39-.06-10.63-.49-10.44,5.16-.43,5.4,8,6.32,10.44,2.51V124h3.52C121.26,120.05,123.8,109.92,119,107.83Zm-.62,10.31c.49,3.87-6.8,5.28-7,1.54-.19-3.5,4.69-2.21,7-2.46Z" transform="translate(0)"/><path class="cls-3" d="M134.3,107.16a5.78,5.78,0,0,0-4.94,2.45v-2h-3.52v23.32h3.52v-9c3.95,5.52,12.54,1.72,11.73-5C141.47,112.13,139.86,107,134.3,107.16Zm3.15,9.94c-.31,7.49-9.7,5.52-8.15-3.07C130.78,107.53,138.81,109,137.45,117.1Z" transform="translate(0)"/><path class="cls-3" d="M148,100.78H144.3v3.68H148Z" transform="translate(0)"/><path class="cls-3" d="M147.89,107.59h-3.52V124.1h3.52Z" transform="translate(0)"/><path class="cls-3" d="M157.28,120.84c-1.05-1.22-.37-8.83-.56-10.43h4.2v-2.82h-4.2v-4.91H153.2v4.91h-2.78v2.82h2.78c.13,6.14-1.85,16.45,8,13.87v-2.94C160.37,121.58,157.9,121.76,157.28,120.84Z" transform="translate(0)"/><path class="cls-3" d="M173.89,107.83c-2.84-1.16-7.66-1-10.13,1v3.25c3-2.76,10.32-3.19,9.52,2.39-4.39-.06-10.63-.49-10.44,5.16-.44,5.4,8,6.32,10.44,2.51V124h3.52C176.18,120.05,178.71,109.92,173.89,107.83Zm-.61,10.31c.49,3.87-6.8,5.28-7,1.54-.19-3.5,4.69-2.21,7-2.46Z" transform="translate(0)"/><path class="cls-3" d="M184.46,121c-.68-.37-.19-19-.31-20.07h-3.52v18.72c-.37,4.23,3,5.71,6.61,4.54v-2.88C186.56,121.58,184.83,121.83,184.46,121Z" transform="translate(0)"/><path class="cls-4" d="M198.42,44.19c-8,.92-12.66,1-12.66,1l-3.22-13.68c-4.63,1.35-7.22,1.84-7.22,1.84l9.76,29s9.51-3.43,30-13.07c16.12-7.61,25-14.05,25-14.05S210.22,42.84,198.42,44.19Z" transform="translate(0)"/><path class="cls-5" d="M185.26,17.25c-3.89.43-5.93.55-5.93.55l3.21,13.68q2.51-.74,5.75-1.84Z" transform="translate(0)"/><path class="cls-6" d="M198.42,44.19c11.8-1.35,41.57-9,41.57-9,.44,1.23-52-3.87-51.58-4.85l-.18-.68c-2.17.74-4.08,1.35-5.75,1.85l3.21,13.68C185.75,45.23,190.51,45.11,198.42,44.19Z" transform="translate(0)"/><path class="cls-7" d="M231.16,8.53s-6.48.31-24-2.76C187.86,2.39,181.06,0,181.06,0l4.2,17.25C191.19,17.31,233,8.78,231.16,8.53Z" transform="translate(0)"/><path class="cls-8" d="M203.79,23.51A194.72,194.72,0,0,0,231.16,8.59c1.85.19-40,8.78-45.9,8.72l3,12.39C192.55,28.17,197.8,26.14,203.79,23.51Z" transform="translate(0)"/><path class="cls-9" d="M188.29,29.64l.18.68c-.49,1,52.14,6.14,51.59,4.85l-8.84-26.7C233.08,8.47,197.74,27.68,188.29,29.64Z" transform="translate(0)"/></g></g></g></svg>